# xmcd
#
# Track frame offsets:
#	150
#	4960
#	22257
#	35115
#	52597
#	67175
#	83220
#	93832
#	109365
#	120525
#	139985
#	157282
#	170647
#	187992
#	205012
#	218935
#
# Disc length: 3164 seconds
#
# Revision: 2
# Processed by: cddbd v1.4PL0 Copyright (c) Steve Scherf et al.
# Submitted via: CDmax 1.8
#
DISCID=eb0c5a10
DTITLE=Various Artist - Farther Down The Road
DYEAR=2001
DGENRE=Country
TTITLE0=Introduction
TTITLE1=Shutup And Drive - Chely Wright
TTITLE2=Lifestyles Of The Not So Rich And Famous - Tracy Bird
TTITLE3=Forever Love - Reba McEntire
TTITLE4=Draggin' Around These Chains Of Love - Marty Stuart
TTITLE5=You're Easy On The Eyes - Terri Clark
TTITLE6=Think Of Me (When You're Lonely) - The Mavericks
TTITLE7=Out Here In The Water - Rebecca Lynn Howard
TTITLE8=Chains - Patty Loveless
TTITLE9=We Were In Love - Toby Keith
TTITLE10=I Think Your Beautiful - Shane Minor
TTITLE11=It Sure Is Monday - Mark Chesnutt
TTITLE12=I Got Dreams - Steve Wariner
TTITLE13=Pretty Little Adriana - Vince Gill
TTITLE14=Jacob's Ladder - Mark Wills
TTITLE15=One Step At A Time - George Strait
EXTD=YEAR: 2001  ID3G:   2
EXTT0=
EXTT1=
EXTT2=
EXTT3=
EXTT4=
EXTT5=
EXTT6=
EXTT7=
EXTT8=
EXTT9=
EXTT10=
EXTT11=
EXTT12=
EXTT13=
EXTT14=
EXTT15=
PLAYORDER=
